<svg width="94" height="94" viewBox="0 0 94 94" fill="none" xmlns="http://www.w3.org/2000/svg">
<g clip-path="url(#clip0)">
<g opacity="0.41">
<path opacity="0.2" d="M47.0001 94C72.9575 94 94.0001 72.9574 94.0001 47C94.0001 21.0426 72.9575 0 47.0001 0C21.0427 0 0.00012207 21.0426 0.00012207 47C0.00012207 72.9574 21.0427 94 47.0001 94Z" fill="#72BEC7"/>
</g>
<path d="M28.2111 37.7841C28.3027 37.6082 28.4415 37.4612 28.6119 37.3596C28.7823 37.2581 28.9776 37.2059 29.176 37.2091C29.3745 37.214 29.5677 37.2749 29.7333 37.3846C29.8988 37.4943 30.0301 37.6485 30.1121 37.8295L33.6786 45.7017H43.1084C43.2824 45.7018 43.4536 45.7449 43.6069 45.8272C43.7602 45.9095 43.8908 46.0284 43.987 46.1734L44.8999 47.5463L45.7642 46.1905C45.8595 46.0407 45.9911 45.9174 46.1467 45.832C46.3023 45.7466 46.4769 45.7017 46.6544 45.7017H48.4725L52.6196 33.9937C52.6964 33.7753 52.8429 33.5881 53.0366 33.4612C53.2303 33.3342 53.4603 33.2744 53.6913 33.2911C53.9222 33.3077 54.1413 33.3999 54.3148 33.5534C54.4882 33.7068 54.6064 33.913 54.6511 34.1402L58.0439 51.1426L61.7807 37.0874C61.8391 36.8663 61.9677 36.6701 62.1472 36.5284C62.3267 36.3867 62.5473 36.3071 62.7759 36.3016C63.0046 36.2961 63.2288 36.365 63.4149 36.498C63.601 36.6309 63.7388 36.8207 63.8078 37.0388L67.314 48.0683L69.4511 44.6589C69.5458 44.5069 69.6776 44.3814 69.8341 44.2944C69.9906 44.2073 70.1667 44.1615 70.3457 44.1612H78.192C78.9925 38.9856 78.1004 33.6898 75.6485 29.062C72.4707 23.1273 67.1558 19.406 61.7763 19.3507H61.6491C57.8028 19.3507 52.3188 21.134 47.2627 29.2362C42.1496 21.0438 36.5986 19.3175 32.7485 19.3513C27.3695 19.4066 22.0541 23.1273 18.8769 29.062C16.1664 34.1623 15.3721 40.0647 16.638 45.7H24.158L28.2111 37.7841Z" fill="#A2DFF2"/>
<path d="M67.8896 51.6563C67.7827 51.8273 67.6291 51.9641 67.4469 52.0505C67.2647 52.1369 67.0616 52.1693 66.8615 52.1438C66.6615 52.1183 66.473 52.036 66.3183 51.9067C66.1635 51.7774 66.0491 51.6065 65.9886 51.4141L62.8899 41.6636L58.9164 56.6101C58.8567 56.8352 58.7244 57.0343 58.5399 57.1763C58.3554 57.3184 58.1291 57.3956 57.8963 57.3958H57.8625C57.6239 57.3882 57.395 57.3 57.2129 57.1455C57.0309 56.9911 56.9065 56.7796 56.8601 56.5454L53.329 38.8513L50.2154 47.6475C50.1426 47.8534 50.0078 48.0316 49.8296 48.1578C49.6514 48.2839 49.4384 48.3518 49.2201 48.352H47.235L45.8112 50.5864C45.7169 50.7349 45.587 50.8574 45.4333 50.9429C45.2796 51.0284 45.107 51.074 44.9311 51.0757C44.7553 51.0774 44.5818 51.0351 44.4265 50.9526C44.2711 50.8702 44.1389 50.7501 44.0418 50.6035L42.545 48.352H33.0001C32.7971 48.3518 32.5984 48.2932 32.4279 48.183C32.2574 48.0729 32.1222 47.916 32.0385 47.731L29.0947 41.2317L25.7416 47.778C25.6531 47.9511 25.5185 48.0965 25.3526 48.1979C25.1868 48.2994 24.9961 48.3531 24.8016 48.353H17.2501C17.8582 50.1258 18.682 51.817 19.703 53.3887C24.7624 61.199 33.6249 68.1351 46.7971 74.594L47.2616 74.8213L47.7255 74.594C60.8982 68.1345 69.7607 61.1984 74.8196 53.3887C76.1365 51.3665 77.1221 49.1471 77.7391 46.8142H70.9263L67.8896 51.6563Z" fill="#A2DFF2"/>
</g>
<defs>
<clipPath id="clip0">
<rect width="94" height="94" fill="white"/>
</clipPath>
</defs>
</svg>
